<svg width="155" height="26" viewBox="0 0 155 26" fill="none" xmlns="http://www.w3.org/2000/svg">
<path d="M4.88477 10.6699H16.3594V5.2998H4.88477V10.6699ZM0.294922 26V0.709961H16.3135C19.3275 0.817057 20.8727 2.33936 20.9492 5.27686V9.13232C20.888 10.8612 20.0312 12.1463 18.3789 12.9878C20.0312 13.8293 20.888 15.1068 20.9492 16.8203V21.4102C20.8727 24.3171 19.3657 25.847 16.4282 26H0.294922ZM16.3594 21.4102V15.2598H4.88477V21.4102H16.3594ZM25.5391 0.709961H45V5.2998H30.1289V11.2207H40.4102V15.7188H30.1289V21.4102H45V26H25.5391V0.709961ZM49.7734 0.709961H54.3633V21.4102H69.3262V26H49.7734V0.709961ZM89.9805 14.4336V5.3457H78.5059V14.4336H89.9805ZM78.5059 19.0234V26H73.916V5.3457C74.0231 2.3929 75.5454 0.862956 78.4829 0.755859H89.9805C92.9333 0.832357 94.4632 2.36995 94.5703 5.36865V26H89.9805V19.0234H78.5059ZM115.225 21.4102V0.709961H119.814V21.3643C119.738 24.3171 118.162 25.8623 115.087 26H103.796C100.828 25.847 99.2826 24.3094 99.1602 21.3872V0.709961H103.75V21.4102H115.225ZM140.469 14.5254V5.2998H128.994V14.5254H140.469ZM128.994 19.1152V26H124.404V0.709961H140.423C143.376 0.847656 144.921 2.3929 145.059 5.3457V14.4795C144.921 17.3864 143.391 18.9316 140.469 19.1152L145.104 26H140.056L135.42 19.1152H128.994ZM149.648 0.801758H154.238V26H149.648V0.801758Z" fill="#055D59"/>
</svg>
